<?xml version="1.0" encoding="iso-8859-1"?>
<!-- Uploaded to: SVG Repo, www.svgrepo.com, Generator: SVG Repo Mixer Tools -->
<svg height="800px" width="800px" version="1.1" id="Layer_1" xmlns="http://www.w3.org/2000/svg" xmlns:xlink="http://www.w3.org/1999/xlink" 
	 viewBox="0 0 512 512" xml:space="preserve">
<path style="fill:#1D1D20;" d="M309.977,125.036l-1.158-26.668c-3.257-20.438-21.329-35.85-42.04-35.85
	c-2.414,0-4.905,0.222-7.404,0.661l-8.882,1.96l-25.508-25.612l17.406-6.415c7.869-2.66,16.074-4.009,24.388-4.009
	c38.418,0,70.846,28.752,75.428,66.878l1.161,29.055H309.977z"/>
<path style="fill:#2E2D30;" d="M234.524,125.036l-1.158-26.668c-3.257-20.438-21.329-35.85-42.04-35.85s-38.783,15.412-42.04,35.85
	l-1.158,26.668h-33.391l1.161-29.055c4.582-38.126,37.01-66.878,75.428-66.878s70.846,28.752,75.428,66.878l1.161,29.055H234.524z"
	/>
<path style="fill:#E0E0E3;" d="M448.553,105.229l-8.772-1.26l-367.023,0.586c-35.957,0-65.213,29.254-65.213,65.213v247.916
	c0,35.959,29.255,65.213,65.213,65.213l367.023,0.586l8.772-1.261c31.869-4.58,55.902-32.325,55.902-64.538V169.768
	C504.455,137.556,480.422,109.811,448.553,105.229z"/>
<path style="fill:#C6C5CB;" d="M104.556,482.897c-35.957,0-65.213-29.254-65.213-65.213V169.768
	c0-35.959,29.255-65.213,65.213-65.213H72.758c-35.957,0-65.213,29.254-65.213,65.213v247.916c0,35.959,29.255,65.213,65.213,65.213
	H104.556z"/>
<path style="fill:#ACABB1;" d="M430.541,482.31l-0.609-0.088c-31.87-4.58-55.903-32.325-55.903-64.538V169.768
	c0-32.213,24.033-59.958,55.902-64.539l0.609-0.088h17.403l0.609,0.088c31.87,4.581,55.903,32.326,55.903,64.539v247.916
	c0,32.213-24.033,59.958-55.902,64.539l-0.609,0.088h-17.403V482.31z"/>
<path style="fill:#898790;" d="M448.553,105.229l-0.609-0.088h-8.702v377.168h8.701l0.609-0.088
	c31.87-4.579,55.903-32.324,55.903-64.537V169.768C504.455,137.556,480.422,109.811,448.553,105.229z"/>
<path style="fill:#ECE5DD;" d="M191.326,385.886c-59.733,0-108.328-48.596-108.328-108.328s48.596-108.328,108.328-108.328
	s108.328,48.596,108.328,108.328S251.059,385.886,191.326,385.886z"/>
<path style="fill:#D9CBBD;" d="M114.738,281.594c0-58.961,47.35-107.066,106.021-108.299c-9.363-2.646-19.234-4.065-29.432-4.065
	c-59.733,0-108.328,48.596-108.328,108.328s48.596,108.328,108.328,108.328c0.772,0,1.54-0.013,2.308-0.029
	C148.159,373.002,114.738,331.128,114.738,281.594z"/>
<path style="fill:#CD2900;" d="M184.005,342.771c-8.148,0-14.776-6.628-14.776-14.776v-14.642c0-7.553-6.145-13.698-13.698-13.698
	h-14.642c-8.148,0-14.776-6.628-14.776-14.776v-14.642c0-8.148,6.628-14.776,14.776-14.776h14.642
	c7.553,0,13.698-6.145,13.698-13.698v-14.642c0-8.148,6.628-14.776,14.776-14.776h14.642c8.148,0,14.776,6.628,14.776,14.776v14.642
	c0,7.553,6.145,13.698,13.698,13.698h14.642c8.148,0,14.776,6.628,14.776,14.776v14.642c0,8.148-6.628,14.776-14.776,14.776h-14.642
	c-7.553,0-13.698,6.145-13.698,13.698v14.642c0,8.148-6.628,14.776-14.776,14.776H184.005z"/>
<path d="M191.326,161.684c-63.892,0-115.874,51.98-115.874,115.874s51.981,115.874,115.874,115.874S307.2,341.451,307.2,277.558
	S255.219,161.684,191.326,161.684z M191.326,377.263c-54.978,0-99.705-44.727-99.705-99.705s44.727-99.705,99.705-99.705
	s99.705,44.727,99.705,99.705S246.304,377.263,191.326,377.263z"/>
<path d="M241.763,247.916h-14.642c-3.392,0-6.153-2.76-6.153-6.153v-14.642c0-12.307-10.014-22.321-22.321-22.321h-14.642
	c-12.307,0-22.321,10.014-22.321,22.321v14.642c0,3.392-2.76,6.153-6.153,6.153h-14.642c-12.307,0-22.321,10.014-22.321,22.321
	v14.642c0,12.307,10.014,22.321,22.321,22.321h14.642c3.392,0,6.153,2.76,6.153,6.153v14.642c0,12.307,10.014,22.321,22.321,22.321
	h14.642c12.307,0,22.321-10.014,22.321-22.321v-14.642c0-3.392,2.76-6.153,6.153-6.153h14.642c12.307,0,22.321-10.014,22.321-22.321
	v-14.642C264.084,257.929,254.071,247.916,241.763,247.916z M247.916,284.879c0,3.392-2.76,6.153-6.153,6.153h-14.642
	c-12.307,0-22.321,10.014-22.321,22.321v14.642c0,3.392-2.76,6.153-6.153,6.153h-14.642c-3.392,0-6.153-2.76-6.153-6.153v-14.642
	c0-12.307-10.014-22.321-22.321-22.321h-14.642c-3.392,0-6.153-2.76-6.153-6.153v-14.642c0-3.392,2.76-6.153,6.153-6.153h14.642
	c12.307,0,22.321-10.014,22.321-22.321v-14.642c0-3.392,2.76-6.153,6.153-6.153h14.642c3.392,0,6.153,2.76,6.153,6.153v14.642
	c0,12.307,10.014,22.321,22.321,22.321h14.642c3.392,0,6.153,2.76,6.153,6.153V284.879z"/>
<path d="M439.242,97.011h-89.324c-4.08-42.283-39.805-75.453-83.139-75.453c-13.157,0-26.117,3.113-37.767,9.02
	c-11.332-5.754-24.131-9.02-37.685-9.02c-43.335,0-79.058,33.17-83.139,75.453H72.758C32.639,97.011,0,129.649,0,169.768v247.916
	c0,40.119,32.639,72.758,72.758,72.758h366.484c40.119,0,72.758-32.639,72.758-72.758V169.768
	C512,129.649,479.361,97.011,439.242,97.011z M266.779,37.726c34.41,0,62.857,25.937,66.866,59.284h-16.311
	c-3.888-24.404-25.075-43.116-50.555-43.116c-2.992,0-5.967,0.277-8.895,0.79c-3.739-4.925-8.013-9.418-12.732-13.404
	C252.08,38.939,259.391,37.726,266.779,37.726z M300.859,97.011h-26.393c-0.921-9.537-3.46-18.604-7.325-26.938
	C283.513,70.239,297.225,81.693,300.859,97.011z M191.326,37.726c34.41,0,62.857,25.937,66.866,59.284h-16.311
	c-3.888-24.404-25.075-43.116-50.555-43.116s-46.667,18.712-50.555,43.116H124.46C128.469,63.664,156.917,37.726,191.326,37.726z
	 M225.406,97.011h-68.16c3.661-15.43,17.546-26.947,34.08-26.947S221.746,81.58,225.406,97.011z M495.832,417.684
	c0,28.459-21.119,52.067-48.505,56.003v-44.886c0-4.427-3.412-8.287-7.836-8.419c-4.578-0.137-8.332,3.533-8.332,8.081v45.224
	c-27.386-3.935-48.505-27.545-48.505-56.003V232.395c0-4.465-3.62-8.084-8.084-8.084l0,0c-4.465,0-8.084,3.62-8.084,8.084v185.289
	c0,22.837,10.585,43.241,27.097,56.589H72.758c-31.254,0-56.589-25.336-56.589-56.589V169.768c0-31.254,25.336-56.589,56.589-56.589
	h320.823c-16.512,13.349-27.097,33.752-27.097,56.589v30.605c0,4.465,3.62,8.084,8.084,8.084l0,0c4.465,0,8.084-3.62,8.084-8.084
	v-30.605c0-28.459,21.119-52.067,48.505-56.003v271.244c0,4.427,3.412,8.287,7.836,8.419c4.578,0.137,8.332-3.533,8.332-8.081
	V113.765c27.386,3.935,48.505,27.545,48.505,56.003V417.684z"/>
</svg>